<svg xmlns="http://www.w3.org/2000/svg" viewBox="0 0 900 700" role="img" aria-labelledby="title desc">
  <title id="title">Cactus lamp</title>
  <desc id="desc">A cactus-inspired lamp with a white shade and gray pot.</desc>
  <rect width="900" height="700" fill="#ffffff"/>
  <circle cx="450" cy="220" r="170" fill="#ffc800" fill-opacity="0.12"/>
  <ellipse cx="450" cy="540" rx="220" ry="28" fill="#000000" fill-opacity="0.08"/>
  <path d="M450 175c-38 0-70 31-70 70v54c0 31-25 56-56 56s-56-25-56-56v-7c0-29 15-57 39-72l20-12c18-11 29-31 29-52 0-35-28-63-63-63" fill="none" stroke="#7a7a7a" stroke-width="34" stroke-linecap="round"/>
  <path d="M450 175c38 0 70 31 70 70v54c0 31 25 56 56 56s56-25 56-56v-7c0-29-15-57-39-72l-20-12c-18-11-29-31-29-52 0-35 28-63 63-63" fill="none" stroke="#7a7a7a" stroke-width="34" stroke-linecap="round"/>
  <path d="M450 150v310" stroke="#ffffff" stroke-width="106" stroke-linecap="round"/>
  <path d="M450 150v310" stroke="#ffc800" stroke-opacity="0.55" stroke-width="26" stroke-linecap="round"/>
  <rect x="330" y="462" width="240" height="120" rx="34" fill="#9c9c9c"/>
  <rect x="360" y="500" width="180" height="16" rx="8" fill="#ffc800"/>
</svg>
